<?xml version="1.0" standalone="no"?>
<!DOCTYPE svg PUBLIC "-//W3C//DTD SVG 1.1//EN" "http://www.w3.org/Graphics/SVG/1.1/DTD/svg11.dtd" >
<svg xmlns="http://www.w3.org/2000/svg" xmlns:xlink="http://www.w3.org/1999/xlink" version="1.1" viewBox="0 0 256 256">
  <g transform="matrix(1 0 0 -1 0 204)">
   <path fill="currentColor"
d="M106 205q-3 3 1 2q16 -4 28 -22q30 4 48 0q15 -2 18 -13q1 -1 -1 -3q0 -2 -4 -1q-8 2 -27 -6q-18 -8 -33 -11q-3 0 0 2q18 8 50 23q3 1 2 3q0 2 -3 3q-21 4 -48 0q1 -10 -5 -13q-3 -2 -5 0q-7 1 -9 8q-3 -1 -5 -2q-11 -4 -17 -7q-8 -4 -13 -2q-2 0 -2 1q1 1 3 2
q16 7 33 12q-1 16 -11 24zM74 165q3 -22 10 -21v-1q2 -1 2 -3q0 -7 -6 -6q-6 -1 -12 12q-3 1 -2 7q-1 3 1 3q3 3 5 9q0 1 2 0zM143 133h14q7 0 6 -3q0 -5 -5 -4q-7 0 -16 -3q-3 -1 -7 -3q-14 -6 -23 -8q-7 -3 -10 -2q-14 -2 -18 1q-2 1 1 2q14 -3 54 16q-1 0 1 3q2 1 3 1z
M176 103q6 3 9 2q4 -3 6 -3q3 -2 7 -4q4 -1 6 -1l1 -1q3 -1 3 -2q0 -4 -3 -3q-5 -1 -10 1q-11 3 -24 2q-18 -2 -34 -5q-4 -6 -3 -10q-2 -12 -2 -19q0 -8 1 -18q1 -26 1 -56q-2 -6 0 -10q0 -2 -1 -3q-3 -1 -3 0q-10 5 -16 37q0 3 2 1q5 -10 10 -13q3 -3 4 -1q0 47 -4 75
q-2 13 -4 14q-21 -3 -64 -18q-11 -4 -15 -2q-2 0 -3 1q-2 1 -9 3q-3 1 2 2q7 -1 24 4q3 1 5 2q28 7 57 12q0 1 1 2q0 2 3 2q8 0 13 -1q33 4 37 6q-1 2 3 4zM162 63q-3 3 1 2q24 -8 43 -27q3 -2 0 -7q-1 -4 -12 1q-2 1 -3 2q-9 13 -29 29zM83 52q-2 -9 -3 -15q0 -6 1 -10
q1 -5 -1 -5l-2 -2q-2 -2 -3 1q-5 2 -2 18q0 4 2 5q3 0 6 7q1 2 2 1z" />
  </g>

</svg>
