<?xml version="1.0" standalone="no"?>
<!DOCTYPE svg PUBLIC "-//W3C//DTD SVG 1.1//EN" "http://www.w3.org/Graphics/SVG/1.1/DTD/svg11.dtd" >
<svg xmlns="http://www.w3.org/2000/svg" xmlns:xlink="http://www.w3.org/1999/xlink" version="1.1" viewBox="0 0 256 256">
  <g transform="matrix(1 0 0 -1 0 204)">
   <path fill="currentColor"
d="M104 99q21 -12 17 -15q-2 -8 -2 -13q8 2 18 4q1 4 4 12q6 17 10 27q0 2 -1 3h-3q-8 -2 -29 -8q-28 -7 -41 -10q-4 -5 -7 -1q-10 9 -11 25q0 4 -1 12v8q-1 3 2 1q7 -6 8 -10q0 -8 -1 -12q-3 -16 8 -20q19 5 39 11q16 4 31 9q5 1 7 3q3 6 8 3q1 -2 4 -3t5 -2q2 -3 2 -4
t-3 -1q-8 -1 -9 -7q-13 -21 -17 -34h4l6 2q1 4 10 5q7 3 11 0l2 -1h5q7 -1 14 -5q2 -6 -6 -6q-16 8 -25 6q-28 -6 -45 -10l-2 -6q-1 -4 -1 -6q13 -20 43 -49q7 -7 24 -7q27 0 47 -8q3 -1 2 -2q0 -1 -3 -1q-23 4 -40 2q-14 -2 -26 9q-28 23 -49 49q-13 -34 -32 -46
q-14 -5 -33 -3q-5 0 0 0q28 0 45 19q10 12 16 36q-2 1 -5 5q-3 3 -3 4q-6 -2 -18 -5q-7 -3 -13 -4q-6 -3 -16 0q-5 1 0 2q15 2 57 12q3 17 -8 28q-4 4 1 2zM161 179q2 -2 2 -4q-1 -3 -4 -3q-2 -1 -9 -6q-11 -12 -25 -21q8 2 16 2q3 -1 1 -3q-2 -3 -5 -3q-11 -3 -17 -6
q-3 -2 -10 -2q-8 -1 -21 -8q-3 -2 -4 0q-2 3 1 4l2 2q1 0 3 2q-9 18 -12 27q-2 7 -3 14q-1 4 2 2q1 -3 3 -6q24 3 55 14q7 2 13 1zM140 181q-12 -3 -30 -9q-3 -2 -5 -2q-9 -4 -23 -2q7 -15 14 -33l12 4q5 2 8 3q17 10 28 34q1 2 0 4q-1 1 -4 1zM111 66q-2 0 -4 -1q1 -2 3 -3
q1 2 1 4z" />
  </g>

</svg>
