<?xml version="1.0" standalone="no"?>
<!DOCTYPE svg PUBLIC "-//W3C//DTD SVG 1.1//EN" "http://www.w3.org/Graphics/SVG/1.1/DTD/svg11.dtd" >
<svg xmlns="http://www.w3.org/2000/svg" xmlns:xlink="http://www.w3.org/1999/xlink" version="1.1" viewBox="0 0 256 256">
  <g transform="matrix(1 0 0 -1 0 204)">
   <path fill="currentColor"
d="M120 207q7 -1 13 -7q1 -1 2 -5q-3 -14 -2 -22l2 1t3 2q-1 3 3 3q8 1 19 -1q1 -1 1 -4q0 -2 -4 -3h-1q-15 -2 -24 -6q-4 -22 -11 -27q11 3 19 5q10 3 13 4q-1 6 2 6q4 0 5 -1q0 -1 2 -2q6 -2 12 -3q2 -1 2 -2v-1q-1 -4 -4 -3q-12 1 -20 -1q-4 -1 -13 -3l-52 -13
q-1 -1 -3 -1q-2 -2 -4 -1h-9q-6 1 -8 2q-3 2 0 2q24 3 53 11q-1 0 -2 2q-1 1 -1 2q-3 0 0 2q6 4 9 19q-33 -9 -38 -3q-5 1 0 2q19 1 38 8q2 27 -3 36q-2 3 1 2zM133 102q7 1 15 4q4 -3 1 -6l-22 -8v-58q-1 -13 4 -14q1 -2 3 -5q2 -2 7 -5v-1q1 -1 1 -2q-3 -3 -5 0
q-8 4 -16 14q-2 2 0 4v2q1 2 2 3q-1 24 -2 49q-26 -30 -42 -40q-2 -1 -1 2q17 14 40 44q1 1 1 3l-10 -5q-3 -2 -4 -2q-8 -4 -8 4q0 3 3 2q13 1 26 13q13 14 16 22q0 1 -1 2t-2 1q-26 -14 -40 -17q0 -2 1 -3t1 -3q0 -1 2 -7q-1 -5 -4 -3q-7 5 -7 11q-2 8 3 15q1 2 2 -1
q-2 -3 0 -6q1 0 6 3q4 3 11 5q8 3 24 11q2 1 9 1q7 -1 11 -5q2 -2 1 -3q0 -2 -2 -2q-8 -3 -14 -10q-4 -3 -10 -9zM48 78q2 -1 2 -2q0 -4 -1 -3q-7 -4 -10 -10q-14 -31 12 -32l1 1q1 2 3 2q13 0 15 -1q1 -2 0 -4t-3 -3h-1q-4 0 -5 -3t-3 -6l-1 -2q-2 -2 2 -2q15 -2 41 -9
q12 -3 27 -5q25 -7 38 -10q14 -3 29 -1q32 6 58 1q4 -1 0 -2q-6 0 -15 -2q-2 0 -7 -1q-3 0 -6 -1q-13 0 -31 -2q-12 -1 -20 2q-43 10 -74 18q-19 5 -32 7q-20 3 -28 -8q-3 -2 -6 -3q-3 1 -4 1q-1 1 1 2q4 4 14 10q7 4 9 13v3t-2 1q-26 0 -19 32q0 3 -1 3h-4q-9 -4 -14 -5
q-3 0 1 2q12 5 19 12v1q1 4 3 5q4 1 12 1zM165 104q-2 1 1 2t4 0q3 -2 6 -3q2 -1 1 -4q-1 -2 -2 -1q-2 0 -7 -5q-16 -17 -27 -22q-4 -1 -1 2q14 11 25 25q3 3 0 6zM55 154q2 -1 1 -5q-1 -3 -2 -2q-6 -2 -9 0q-10 5 -17 8q-3 0 0 2q16 5 27 -3zM156 66q-3 0 0 1q32 -7 38 -11
q2 -2 1 -4q-1 -3 -6 0q-16 7 -33 14z" />
  </g>

</svg>
